<svg width="512" height="512" viewBox="0 0 512 512" fill="none" xmlns="http://www.w3.org/2000/svg">
<g clip-path="url(#clip0_452_33166)">
<rect width="512" height="512" fill="#D1DFF5"/>
<path opacity="0.24" d="M-210.327 204.902L-220.891 225.015L-17.799 331.581L-85.7186 460.896L-63.3448 472.647L4.58086 343.321L154.782 422.137L86.8259 551.521L109.2 563.272L177.168 433.865L407.863 554.914L339.847 684.414L362.22 696.165L430.243 566.654L647.211 680.493L579.139 810.097L601.513 821.848L669.59 692.233L963.347 846.36L973.911 826.247L751.822 709.718L890.347 445.977L982.415 494.334L925.138 603.386L1055.11 671.65L1065.67 651.538L958.075 595.024L1090.91 342.109L1068.54 330.357L992.979 474.221L900.91 425.865L976.259 282.405L953.885 270.654L807.908 548.586L704.616 494.438L818.107 278.358L519.764 121.557L552.463 59.2998L530.089 47.5485L497.39 109.806L379.833 48.0027L412.508 -14.2085L390.134 -25.9598L357.459 36.2514L207.313 -42.6686L239.964 -104.834L217.59 -116.585L184.939 -54.4199L95.8171 -101.229L128.468 -163.394L106.094 -175.146L-118.749 252.942L-210.327 204.902ZM15.1574 323.215L129.377 105.748L210.844 148.536C199.013 183.093 213.906 223.246 247.11 246.381L165.364 402.019L15.1574 323.215ZM237.718 149.813C252.892 120.922 291.398 111.148 323.537 128.028C355.676 144.908 369.483 182.159 354.309 211.05C339.134 239.941 300.628 249.715 268.489 232.835C236.35 215.955 222.544 178.704 237.718 149.813ZM187.744 413.759L269.49 258.121C307.377 272.339 348.881 261.793 370.632 232.446L419.509 258.118L305.35 475.47L187.744 413.759ZM729.455 697.985L327.73 487.209L395.54 358.103L797.351 568.717L729.455 697.985ZM785.177 286.738L682.243 482.717L406.123 337.986L509.226 141.683L785.177 286.738ZM486.839 129.925L430.073 238.005L381.195 212.334C393.026 177.776 378.133 137.624 344.929 114.488L369.282 68.122L486.839 129.925ZM346.902 56.3822L322.55 102.749C284.662 88.5303 243.158 99.0763 221.408 128.424L139.941 85.635L196.75 -22.5262L346.902 56.3822ZM10.5487 61.1166L85.2535 -81.1167L174.376 -34.3074L99.6707 107.926L10.5487 61.1166ZM89.107 128.038L-7.22927 311.457L-96.3756 264.694L-0.0150008 81.2292L89.107 128.038Z" fill="white"/>
<g filter="url(#filter0_i_452_33166)">
<path d="M269.088 86.5746C221.199 85.2557 199.542 91.8717 167.336 112.783C163.191 118.917 161.356 122.547 158.6 129.228C157.076 139.585 157.802 145.21 162.197 154.923C172.51 168.259 179.588 172.839 195.6 173.423C205.298 172.651 208.482 170.188 212.559 166.743C239.95 155.555 255.918 153.574 286.56 165.201C306.797 175.838 316.077 185.009 326.13 211.452C331.788 252.462 324.924 268.335 301.977 289.05C285.72 302.683 274.222 306.701 249.56 307.55C226.801 306.459 215.433 301.504 197.142 286.481C189.453 280.329 183.778 278.878 171.961 278.772C160.899 280.812 155.541 284.183 147.294 293.675C138.582 306.23 139.263 315.075 146.266 332.731L234.143 419.58C248.917 427.795 257.109 427.858 271.657 419.58L355.422 335.301C374.931 314.706 383.054 301.178 393.451 274.147C400.919 240.806 400.608 223.568 392.933 195.142C384.134 162.87 374.439 147.657 351.825 125.117C320.223 98.1985 301.986 91.807 269.088 86.5746Z" fill="#0057E7"/>
</g>
<g filter="url(#filter1_i_452_33166)">
<path d="M269.573 86.5746C221.684 85.2557 200.027 91.8717 167.821 112.783C163.676 118.917 161.841 122.547 159.085 129.228C157.561 139.585 158.287 145.21 162.682 154.923C172.995 168.259 180.073 172.839 196.086 173.423C205.783 172.651 208.967 170.188 213.044 166.743C240.435 155.555 256.403 153.574 287.045 165.201C324.603 182.635 339.988 196.419 355.695 229.277C372.544 264.706 372.655 286.498 362.89 327.431C377.772 308.804 384.73 297.266 393.936 274.147C401.404 240.806 401.093 223.568 393.419 195.142C384.619 162.87 374.924 147.657 352.31 125.117C320.708 98.1985 302.471 91.807 269.573 86.5746Z" fill="url(#paint0_linear_452_33166)"/>
</g>
<circle cx="135.747" cy="185.082" r="22.6115" fill="url(#paint1_linear_452_33166)"/>
<circle cx="132.664" cy="241.611" r="13.3613" fill="#0057E7"/>
</g>
<defs>
<filter id="filter0_i_452_33166" x="140.886" y="86.4137" width="263.989" height="345.351" filterUnits="userSpaceOnUse" color-interpolation-filters="sRGB">
<feFlood flood-opacity="0" result="BackgroundImageFix"/>
<feBlend mode="normal" in="SourceGraphic" in2="BackgroundImageFix" result="shape"/>
<feColorMatrix in="SourceAlpha" type="matrix" values="0 0 0 0 0 0 0 0 0 0 0 0 0 0 0 0 0 0 127 0" result="hardAlpha"/>
<feOffset dx="6" dy="6"/>
<feGaussianBlur stdDeviation="3"/>
<feComposite in2="hardAlpha" operator="arithmetic" k2="-1" k3="1"/>
<feColorMatrix type="matrix" values="0 0 0 0 1 0 0 0 0 1 0 0 0 0 1 0 0 0 0.25 0"/>
<feBlend mode="normal" in2="shape" result="effect1_innerShadow_452_33166"/>
</filter>
<filter id="filter1_i_452_33166" x="158.359" y="86.4137" width="247.001" height="247.018" filterUnits="userSpaceOnUse" color-interpolation-filters="sRGB">
<feFlood flood-opacity="0" result="BackgroundImageFix"/>
<feBlend mode="normal" in="SourceGraphic" in2="BackgroundImageFix" result="shape"/>
<feColorMatrix in="SourceAlpha" type="matrix" values="0 0 0 0 0 0 0 0 0 0 0 0 0 0 0 0 0 0 127 0" result="hardAlpha"/>
<feOffset dx="6" dy="6"/>
<feGaussianBlur stdDeviation="3"/>
<feComposite in2="hardAlpha" operator="arithmetic" k2="-1" k3="1"/>
<feColorMatrix type="matrix" values="0 0 0 0 1 0 0 0 0 1 0 0 0 0 1 0 0 0 0.25 0"/>
<feBlend mode="normal" in2="shape" result="effect1_innerShadow_452_33166"/>
</filter>
<linearGradient id="paint0_linear_452_33166" x1="158.359" y1="86.4137" x2="399.376" y2="327.415" gradientUnits="userSpaceOnUse">
<stop stop-color="#00FFD1"/>
<stop offset="1" stop-color="#0029FF"/>
</linearGradient>
<linearGradient id="paint1_linear_452_33166" x1="154.761" y1="171.721" x2="127.011" y2="207.693" gradientUnits="userSpaceOnUse">
<stop stop-color="#00FFD1"/>
<stop offset="1" stop-color="#0029FF"/>
</linearGradient>
<clipPath id="clip0_452_33166">
<rect width="512" height="512" fill="white"/>
</clipPath>
</defs>
</svg>
