<svg height="512pt" viewBox="0 0 512 512" width="512pt" xmlns="http://www.w3.org/2000/svg"><path d="m512 256c0 141.386719-114.613281 256-256 256s-256-114.613281-256-256 114.613281-256 256-256 256 114.613281 256 256zm0 0" fill="#e0714f"/><g fill="#fff"><path d="m256 281.601562c-17.644531 0-32-14.355468-32-32v-12.800781c0-17.644531 14.355469-32 32-32s32 14.355469 32 32v12.800781c0 17.644532-14.355469 32-32 32zm0-64c-10.585938 0-19.199219 8.613282-19.199219 19.199219v12.800781c0 10.585938 8.613281 19.199219 19.199219 19.199219s19.199219-8.613281 19.199219-19.199219v-12.800781c0-10.585937-8.613281-19.199219-19.199219-19.199219zm0 0"/><path d="m211.199219 320h-12.800781v-16c0-4.523438 2.777343-7.980469 4.429687-9.636719.308594-.308593.640625-.585937 1.003906-.820312l32.96875-21.785157v-2.957031h12.800781v6.398438c0 2.152343-1.078124 4.15625-2.875 5.339843l-35.179687 23.25c-.238281.289063-.367187.523438-.398437.625zm0 0"/><path d="m313.601562 320h-12.800781v-16l-35.535156-23.460938c-1.785156-1.183593-2.867187-3.1875-2.867187-5.339843v-6.398438h12.800781v2.957031l32.96875 21.785157c3.503906 2.335937 5.433593 6.046875 5.433593 10.457031zm0 0"/><path d="m256 409.601562c-50.246094 0-89.601562-67.46875-89.601562-153.601562s39.355468-153.601562 89.601562-153.601562c10.316406 0 19.6875 2.34375 28.640625 7.167968l-6.074219 11.273438c-7.136718-3.847656-14.308594-5.640625-22.566406-5.640625-42.347656 0-76.800781 63.164062-76.800781 140.800781s34.453125 140.800781 76.800781 140.800781 76.800781-63.164062 76.800781-140.800781c0-35.007812-9.03125-71.195312-24.78125-99.269531l11.160157-6.265625c16.789062 29.9375 26.421874 68.402344 26.421874 105.535156 0 86.132812-39.355468 153.601562-89.601562 153.601562zm0 0"/><path d="m320 364.800781c-25.246094 0-64.628906-5.371093-108.804688-30.945312-74.550781-42.695313-113.261718-110.625-88.109374-154.628907 12.300781-21.523437 37.964843-33.03125 72.34375-32.828124 32.8125.347656 70.234374 11.609374 105.351562 31.734374 58.34375 33.917969 96.019531 82.058594 96.019531 122.667969 0 8.363281-.902343 15.257813-2.828125 21.683594-1.027344 3.371094-4.578125 5.292969-7.976562 4.285156-3.386719-1.015625-5.304688-4.585937-4.289063-7.972656 1.589844-5.273437 2.292969-10.824219 2.292969-17.996094 0-35.578125-36.011719-80.417969-89.621094-111.589843-33.214844-19.027344-68.421875-29.691407-99.082031-30.011719-29.429687-.402344-51.199219 9.0625-61.09375 26.375-21.230469 37.160156 16.171875 98.699219 83.382813 137.191406 41.742187 24.164063 78.726562 29.234375 102.414062 29.234375 16.378906 0 27.046875-1.734375 35.671875-5.792969 3.203125-1.496093 7.007813-.132812 8.519531 3.066407 1.5 3.199218.136719 7.015624-3.066406 8.519531-13.132812 6.175781-28.160156 7.007812-41.125 7.007812zm0 0"/><path d="m194.203125 365.734375c-25.128906.007813-46.671875-6.554687-60.972656-19.941406-2.582031-2.421875-2.714844-6.472657-.296875-9.050781 2.421875-2.578126 6.464844-2.699219 9.050781-.300782 28.167969 26.367188 93.6875 20.5 152.402344-13.65625 67.214843-39.105468 104.652343-100.640625 83.4375-137.171875-6.394531-11.1875-17.90625-19.269531-33.320313-23.40625-33.980468-9.117187-82.578125 1.222657-126.882812 27.007813-53.609375 31.164062-89.621094 76-89.621094 111.585937 0 3.539063-2.867188 6.398438-6.398438 6.398438-3.535156 0-6.402343-2.859375-6.402343-6.398438 0-40.609375 37.675781-88.757812 95.988281-122.65625 47.140625-27.429687 99.492188-38.277343 136.640625-28.300781 18.78125 5.042969 32.984375 15.199219 41.09375 29.382812 25.152344 43.3125-13.542969 111.25-88.101563 154.621094-36.230468 21.078125-74.367187 31.886719-106.617187 31.886719zm0 0"/><path d="m288 140.800781c-10.585938 0-19.199219-8.613281-19.199219-19.199219 0-10.585937 8.613281-19.203124 19.199219-19.203124s19.199219 8.617187 19.199219 19.203124c0 10.585938-8.613281 19.199219-19.199219 19.199219zm0-25.601562c-3.53125 0-6.398438 2.875-6.398438 6.402343 0 3.523438 2.867188 6.398438 6.398438 6.398438s6.398438-2.875 6.398438-6.398438c0-3.527343-2.867188-6.402343-6.398438-6.402343zm0 0"/><path d="m128 352c-10.585938 0-19.199219-8.613281-19.199219-19.199219 0-10.585937 8.613281-19.199219 19.199219-19.199219s19.199219 8.613282 19.199219 19.199219c0 10.585938-8.613281 19.199219-19.199219 19.199219zm0-25.601562c-3.527344 0-6.398438 2.867187-6.398438 6.402343 0 3.53125 2.871094 6.398438 6.398438 6.398438s6.398438-2.867188 6.398438-6.398438c0-3.535156-2.871094-6.402343-6.398438-6.402343zm0 0"/><path d="m384 352c-10.585938 0-19.199219-8.613281-19.199219-19.199219 0-10.585937 8.613281-19.199219 19.199219-19.199219s19.199219 8.613282 19.199219 19.199219c0 10.585938-8.613281 19.199219-19.199219 19.199219zm0-25.601562c-3.53125 0-6.398438 2.867187-6.398438 6.402343 0 3.53125 2.867188 6.398438 6.398438 6.398438s6.398438-2.867188 6.398438-6.398438c0-3.535156-2.867188-6.402343-6.398438-6.402343zm0 0"/><path d="m396.800781 249.601562h12.800781v12.796876h-12.800781zm0 0"/><path d="m326.398438 377.601562h12.800781v12.796876h-12.800781zm0 0"/><path d="m172.800781 377.601562h12.800781v12.796876h-12.800781zm0 0"/><path d="m326.398438 121.601562h12.800781v12.796876h-12.800781zm0 0"/><path d="m172.800781 121.601562h12.800781v12.796876h-12.800781zm0 0"/><path d="m102.398438 249.601562h12.800781v12.796876h-12.800781zm0 0"/></g></svg>