<?xml version="1.0" encoding="UTF-8" standalone="no"?>
<!-- Created with Inkscape (http://www.inkscape.org/) -->

<svg
   version="1.1"
   id="svg2151"
   xml:space="preserve"
   width="682.66669"
   height="682.66669"
   viewBox="0 0 682.66669 682.66669"
   xmlns="http://www.w3.org/2000/svg"
   xmlns:svg="http://www.w3.org/2000/svg"><defs
     id="defs2155"><clipPath
       clipPathUnits="userSpaceOnUse"
       id="clipPath2165"><path
         d="M 0,512 H 512 V 0 H 0 Z"
         id="path2163" /></clipPath></defs><g
     id="g2157"
     transform="matrix(1.3333333,0,0,-1.3333333,0,682.66667)"><g
       id="g2159"><g
         id="g2161"
         clip-path="url(#clipPath2165)"><g
           id="g2167"
           transform="translate(323.5,256)"><path
             d="M 0,0 C 0,37.279 -30.221,67.5 -67.5,67.5 -104.779,67.5 -135,37.279 -135,0 c 0,-37.279 30.221,-67.5 67.5,-67.5 C -30.221,-67.5 0,-37.279 0,0"
             style="fill:#fff08b;fill-opacity:1;fill-rule:evenodd;stroke:none"
             id="path2169" /></g><g
           id="g2171"
           transform="translate(166.7739,320.5054)"><path
             d="M 0,0 C 0,12.384 -10.037,22.5 -22.5,22.5 -34.927,22.5 -45,12.426 -45,0 c 0,-11.518 8.726,-21.229 20.22,-22.386 C -11.544,-23.722 0,-13.355 0,0"
             style="fill:#00e5bf;fill-opacity:1;fill-rule:evenodd;stroke:none"
             id="path2173" /></g><g
           id="g2175"
           transform="translate(267.25,322.5615)"><path
             d="m 0,0 c -41.03,6.885 -78.75,-24.618 -78.75,-66.562 0,-41.943 37.72,-73.446 78.75,-66.561 -31.923,5.357 -56.25,33.116 -56.25,66.561 0,33.446 24.327,61.205 56.25,66.562"
             style="fill:#ffe400;fill-opacity:1;fill-rule:evenodd;stroke:none"
             id="path2177" /></g><g
           id="g2179"
           transform="translate(368.5483,411.8223)"><path
             d="M 0,0 C 0,12.385 -10.037,22.5 -22.5,22.5 -34.926,22.5 -45,12.427 -45,0 c 0,-11.518 8.726,-21.229 20.22,-22.386 C -11.543,-23.722 0,-13.355 0,0"
             style="fill:#ff5477;fill-opacity:1;fill-rule:evenodd;stroke:none"
             id="path2181" /></g><g
           id="g2183"
           transform="translate(458.5957,256)"><path
             d="M 0,0 C 0,12.384 -10.037,22.5 -22.5,22.5 -34.926,22.5 -45,12.426 -45,0 c 0,-11.518 8.726,-21.229 20.22,-22.386 C -11.543,-23.722 0,-13.355 0,0"
             style="fill:#fff08b;fill-opacity:1;fill-rule:evenodd;stroke:none"
             id="path2185" /></g><g
           id="g2187"
           transform="translate(278.5,126.9897)"><path
             d="M 0,0 C 0,12.384 -10.037,22.5 -22.5,22.5 -34.926,22.5 -45,12.426 -45,0 c 0,-11.518 8.726,-21.229 20.22,-22.386 C -11.544,-23.722 0,-13.355 0,0"
             style="fill:#00e5bf;fill-opacity:1;fill-rule:evenodd;stroke:none"
             id="path2189" /></g><g
           id="g2191"
           transform="translate(285.9995,267.854)"><path
             d="m 0,0 v 15 m -30,0 v 15"
             style="fill:none;stroke:#ffffff;stroke-width:15;stroke-linecap:butt;stroke-linejoin:miter;stroke-miterlimit:2.613;stroke-dasharray:none;stroke-opacity:1"
             id="path2193" /></g><g
           id="g2195"
           transform="translate(371.1841,233.4995)"><path
             d="m 0,0 c -5.293,-126.696 -54.837,-226 -115.184,-226 -63.878,0 -115.661,111.258 -115.661,248.5 0,14.357 0.567,28.43 1.655,42.12 m 211.232,92.518 C -8.077,124.273 -1.708,86.077 0.009,45 M 0.477,15 v 15 m -186.735,188.542 c 19.609,32.868 44.276,52.458 71.074,52.458 31.701,0 60.419,-27.411 81.312,-71.791 m -189.726,-89.947 c 6.403,36.918 16.774,69.684 29.999,95.904"
             style="fill:none;stroke:#000000;stroke-width:15;stroke-linecap:butt;stroke-linejoin:miter;stroke-miterlimit:22.926;stroke-dasharray:none;stroke-opacity:1"
             id="path2197" /></g><g
           id="g2199"
           transform="translate(368.374,414.772)"><path
             d="m 0,0 c 48.884,4.099 86.982,-7.067 102.833,-34.522 15.852,-27.457 6.48,-66.036 -21.515,-106.323 m -287.169,59.739 c 11.312,7.789 23.211,15.32 35.646,22.5 42.975,24.811 86.389,42.055 125.82,51.353 m -88.926,-288.787 c -89.991,-33.038 -169.434,-29.999 -194.27,13.018 -24.836,43.018 12.255,113.34 85.867,174.756 M 52.845,-175.65 c -27.768,-29.5 -64.414,-58.476 -107.388,-83.287 -12.434,-7.179 -24.904,-13.717 -37.304,-19.619"
             style="fill:none;stroke:#000000;stroke-width:15;stroke-linecap:butt;stroke-linejoin:miter;stroke-miterlimit:22.926;stroke-dasharray:none;stroke-opacity:1"
             id="path2201" /></g><g
           id="g2203"
           transform="translate(276.9365,118.7324)"><path
             d="m 0,0 c 89.992,-33.04 169.435,-30 194.271,13.018 15.852,27.456 6.475,66.034 -21.518,106.321 m -28.469,34.808 c -27.768,29.499 -64.416,58.475 -107.39,83.286 -118.855,68.622 -241.099,79.404 -273.038,24.085 -31.939,-55.32 38.521,-155.795 157.377,-224.416 12.434,-7.179 24.903,-13.715 37.304,-19.618"
             style="fill:none;stroke:#000000;stroke-width:15;stroke-linecap:butt;stroke-linejoin:miter;stroke-miterlimit:22.926;stroke-dasharray:none;stroke-opacity:1"
             id="path2205" /></g><g
           id="g2207"
           transform="translate(256,323.5)"><path
             d="M 0,0 C 37.279,0 67.5,-30.221 67.5,-67.5 67.5,-104.779 37.279,-135 0,-135 c -37.279,0 -67.5,30.221 -67.5,67.5 C -67.5,-30.221 -37.279,0 0,0 Z"
             style="fill:none;stroke:#000000;stroke-width:15;stroke-linecap:butt;stroke-linejoin:miter;stroke-miterlimit:22.926;stroke-dasharray:none;stroke-opacity:1"
             id="path2209" /></g><g
           id="g2211"
           transform="translate(346.0479,434.4678)"><path
             d="M 0,0 C -12.426,0 -22.5,-10.074 -22.5,-22.5 -22.5,-34.927 -12.426,-45 0,-45 12.427,-45 22.5,-34.927 22.5,-22.5 22.5,-10.074 12.427,0 0,0 Z m 90.048,-155.968 c -12.426,0 -22.5,-10.074 -22.5,-22.5 0,-12.426 10.074,-22.5 22.5,-22.5 12.427,0 22.5,10.074 22.5,22.5 0,12.426 -10.073,22.5 -22.5,22.5 z m -180.096,-129.01 c -12.426,0 -22.5,-10.074 -22.5,-22.5 0,-12.427 10.074,-22.5 22.5,-22.5 12.427,0 22.5,10.073 22.5,22.5 0,12.426 -10.073,22.5 -22.5,22.5 z m -111.726,193.516 c -12.427,0 -22.5,-10.074 -22.5,-22.5 0,-12.427 10.073,-22.5 22.5,-22.5 12.427,0 22.5,10.073 22.5,22.5 0,12.426 -10.073,22.5 -22.5,22.5 z"
             style="fill:none;stroke:#000000;stroke-width:15;stroke-linecap:butt;stroke-linejoin:miter;stroke-miterlimit:22.926;stroke-dasharray:none;stroke-opacity:1"
             id="path2213" /></g></g></g></g></svg>
